<svg xmlns="http://www.w3.org/2000/svg" viewBox="0 0 128 128">
  <!-- Rounded Background -->
  <rect width="128" height="128" rx="36" fill="#00C16E" />
  
  <!-- Chef Hat Icon -->
  <g transform="translate(26, 26) scale(3.16)" fill="none" stroke="#FFFFFF" stroke-width="2.5" stroke-linecap="round" stroke-linejoin="round">
    <path d="M17 21a1 1 0 0 0 1-1v-5.35c0-.457.316-.844.727-1.041a4 4 0 0 0-2.134-7.589 5 5 0 0 0-9.186 0 4 4 0 0 0-2.134 7.588c.411.198.727.585.727 1.041V20a1 1 0 0 0 1 1Z" />
    <path d="M6 17h12" />
  </g>
</svg>
